<?xml version="1.0" encoding="utf-8"?>
<!-- Generator: Adobe Illustrator 24.3.0, SVG Export Plug-In . SVG Version: 6.00 Build 0)  -->
<svg version="1.1" id="Layer_1" xmlns="http://www.w3.org/2000/svg" xmlns:xlink="http://www.w3.org/1999/xlink" x="0px" y="0px"
	 viewBox="0 0 545.6 104.3" style="enable-background:new 0 0 545.6 104.3;" xml:space="preserve">
<style type="text/css">
	.st0{fill:#FFFFFF;}
	.st1{font-family:'CrimsonText-Regular';}
	.st2{font-size:26px;}
	.st3{fill:#FFFFFF;stroke:#FFFFFF;stroke-width:2;stroke-miterlimit:10;}
	.st4{fill:#FFFFFF;stroke:#FFFFFF;stroke-width:0.25;stroke-miterlimit:10;}
</style>
<path class="st0" d="M93.6,67.6c-0.2,8.7-4,23.1-20.1,23.1c-13.2-0.1-25-17.7-28.6-25c-13.3-26.5-19-30.8-28.5-30.8v20.4
	c0,6,5.5,5.7,7.6,5.7v1H1.3v-1c2,0,6.9,0.2,6.9-5.6V11.7C8.3,5.8,3,6,1.4,6V5h21.7c6.6,0,20.4,1.4,20.4,14.8
	c0,10.4-10.1,13.7-18,14.7c0,0,10.1,4.9,17.4,15C51.8,61.6,63.4,81.1,77.2,83C91.4,85,93.6,67.6,93.6,67.6z M16.3,33.9h6.9
	c0.9,0,10.9-0.8,10.9-14.1C34.1,12,31.8,6,23.1,6c-1.2,0-6.8,0-6.8,5.6C16.3,11.6,16.3,33.9,16.3,33.9z"/>
<path class="st0" d="M74.2,61.1V62H56.8v-0.9c4.3,0,8.5-8,11.6-15.2h0.7C67.2,52.9,66.3,61.1,74.2,61.1z M106.6,61.1V62H88.9v-0.9
	c3.7,0,5.5-2.5,4.2-6.3l-9.5-24.2l-1.7-4.3c-2.1-5.1-5.7,0.5-6.6,2.6h-0.6l6.7-18.1h2.3c4.1,10.4,16.9,43.6,17.1,43.8
	C103.3,60.2,103.9,61.1,106.6,61.1z"/>
<path class="st0" d="M124.2,41.2v14.7c0,5.1,4.5,5.1,6.9,5.1V62h-20.3v-0.9c2.1,0,6.2,0.1,6.2-5V40.4h13.4c1.5,0,2.2-0.3,2.2-0.3
	l-16.7-25.3c0,0-1.9-3-5-3v-0.9h20.7c5.8,0,17.4,2.2,17.4,14.8c0,15.5-15.4,15.6-18.6,15.6L124.2,41.2L124.2,41.2z M122.5,11.7
	l15.3,23.7c1.2-2.2,2.7-5.4,2.7-9.5c0-7.1-0.2-14.2-10.2-14.2H122.5z"/>
<path class="st0" d="M196.3,16.8v39.1c0,4.3,3.3,5.1,5.4,5.1V62h-17.9v-0.9c2.7,0,5.3-0.6,5.3-5V36.9h-23.4V56c0,4.4,2.7,5,5.4,5V62
	h-18v-0.9c2.2,0,5.5-0.8,5.5-5.1V16.9c0-4.3-3.3-5.2-5.5-5.2v-0.9h18v0.9c-2.7,0-5.4,0.6-5.4,5.1v19.1h23.4V16.7c0-4.4-2.7-5-5.5-5
	v-0.9h17.9v0.9C199.5,11.7,196.3,12.5,196.3,16.8z"/>
<path class="st0" d="M229.5,41.5v0.4c-2.6,0.1-6,0.4-8.3,1.4c-5.7,2.4-8.5,17.8,2.2,17.8V62h-17.4v-0.9c6.3,0,14.1-22.1,16.4-28.9
	h0.3c-0.3,1.9-0.5,4.6,0.5,5.9C224.4,40,227.2,41,229.5,41.5z M255.7,61.1V62H238v-0.9c3.7,0,5.5-2.5,4.2-6.3l-14.4-36.7
	c-1.3-2.5-3.3-2.7-3.3-2.7c5.3-1.1,8.2-4.7,8.2-4.7s17.1,43.6,17.2,43.9C252.4,60.2,253,61.1,255.7,61.1z"/>
<path class="st0" d="M298.9,47.6l-1,14.4h-38v-0.9c2.6,0,6.2-1,6.2-5V35.7h10.4c0.7,0,1.5-0.1,2.1-0.3l-13.8-20.9c0,0-1.9-2.8-5-2.8
	v-0.9h36.7l0.9,12.9h-1.1c-1.4-7.3-6.8-12-14.5-12h-10.4l13,20.2c1-1.5,1.5-3.4,1.5-5.2h1.1v18.9h-1.1c0-4.6-3.9-8.7-9.7-8.9h-3
	v19.5c0,4.6,5.1,4.8,5.3,4.8h4.6c9.7,0,14-6.4,14.6-13.4C297.8,47.6,298.9,47.6,298.9,47.6z"/>
<path class="st0" d="M342.7,46.8L341.2,62h-38.1v-1c2.8,0,6.2-0.1,6.2-5V15c0-1.9-0.2-2.9-1.1-4.2l8.7,5.3v40c0,3.7,2.6,5,5.1,5
	c5.3,0,15.8,0.2,19.3-14.3L342.7,46.8L342.7,46.8z"/>
<path class="st0" d="M413.5,19.4c0,18.1-18,18.3-21.8,18.3h-7.2v19.4c0,2.2,0.2,3.4,1.2,4.9l-9.6-6.2V9.1c0-5.8-4.8-5.9-7.2-5.9V2
	h24.2C399.9,2,413.5,4.6,413.5,19.4z M403.6,19.7c0-8.3-0.2-16.6-11.9-16.6c-1.2,0-2.5,0-3.6,0.4c-1.8,0.6-3,2.5-3.4,4.3
	c-0.2,1.1-0.2,2.3-0.2,3.4v25.6h7.3C395.1,36.7,403.6,33.7,403.6,19.7z"/>
<path class="st0" d="M435.8,61.1V62h-17.7v-0.9c2.7,0,5.3-0.7,5.3-5V15c0-1.9-0.2-2.9-1-4.2l8.2,5.3V56
	C430.5,60.4,433,61.1,435.8,61.1z"/>
<path class="st0" d="M487.4,35.7c0,14.5-11.1,26.3-23.7,26.3C451,62,440,50.2,440,35.7S451,9.5,463.7,9.5
	C476.4,9.5,487.4,21.2,487.4,35.7z M478.6,35.4c0-13.7-5.8-25-14.9-25c-9,0-14.9,11.3-14.9,25s5.9,25.7,14.9,25.7
	C472.8,61.1,478.6,49.1,478.6,35.4z"/>
<path class="st0" d="M504.5,10.8L534,51.4V62h-2.4l-31.4-43.4c-2.4-3.2-4.8-6.6-8.5-6.6v-1.2C491.6,10.8,504.5,10.8,504.5,10.8z
	 M509.6,61v1h-18v-1c2.8,0,5-0.8,6.1-2.7c1.5-2.8,2.2-7.8,2.6-11.9h0.8c0.4,4.1,1.2,9.2,2.7,11.9C504.9,60.2,507,61,509.6,61z
	 M542.5,10.8v1c-2.7,0-4.8,0.8-5.8,2.7c-1.5,2.7-2.3,7.7-2.7,11.9h-0.8c-0.3-4.1-1.1-9.1-2.7-11.9c-1-1.9-3.2-2.7-6-2.7v-1
	C524.5,10.8,542.5,10.8,542.5,10.8z"/>
<text transform="matrix(1 0 0 1 181.2837 98.7105)" class="st0 st1 st2">Développeur Web</text>
<path class="st3" d="M524.5,247.7"/>
<line class="st4" x1="174.9" y1="90.7" x2="125" y2="90.7"/>
<line class="st4" x1="425.3" y1="90.7" x2="375.4" y2="90.7"/>
</svg>
